<svg xmlns="http://www.w3.org/2000/svg" xmlns:xlink="http://www.w3.org/1999/xlink" width="157" zoomAndPan="magnify" viewBox="0 0 117.75 30.000001" height="40" preserveAspectRatio="xMidYMid meet" version="1.0"><defs><g/><clipPath id="403117654b"><path d="M 9.234375 0.820312 L 11.75 0.820312 L 11.75 19.507812 L 9.234375 19.507812 Z M 9.234375 0.820312 " clip-rule="nonzero"/></clipPath><clipPath id="85194bcb59"><path d="M 22.675781 10.164062 L 25.191406 10.164062 L 25.191406 28.851562 L 22.675781 28.851562 Z M 22.675781 10.164062 " clip-rule="nonzero"/></clipPath></defs><g fill="#00fffc" fill-opacity="1"><g transform="translate(13.787984, 19.849963)"><g><path d="M -7.867188 -9.839844 C -8.683594 -8.773438 -8.472656 -7.230469 -7.40625 -6.414062 L -1.574219 -1.96875 C -0.503906 -1.152344 1.039062 -1.359375 1.851562 -2.429688 L 3.335938 -4.375 L 4.308594 -3.632812 L 5.789062 -5.578125 L 4.816406 -6.316406 L 6.300781 -8.261719 C 7.125 -9.34375 6.894531 -10.882812 5.839844 -11.6875 L 0.0078125 -16.136719 C -1.0625 -16.949219 -2.605469 -16.742188 -3.417969 -15.671875 Z M 2.875 -7.800781 L 0.929688 -9.28125 L -0.550781 -7.339844 L 1.390625 -5.855469 L -0.0898438 -3.914062 L -5.921875 -8.359375 L -1.476562 -14.191406 L 4.355469 -9.742188 Z M 2.875 -7.800781 "/></g></g></g><g fill="#00fffc" fill-opacity="1"><g transform="translate(16.065472, 19.934616)"><g><path d="M 9.636719 7.222656 L 11.011719 5.386719 L 3.671875 -0.117188 L 7.796875 -5.621094 L 15.140625 -0.121094 L 16.515625 -1.953125 L 9.171875 -7.457031 C 8.164062 -8.214844 6.71875 -8.007812 5.960938 -7 L 1.835938 -1.492188 C 1.078125 -0.480469 1.285156 0.964844 2.292969 1.71875 Z M 9.636719 7.222656 "/></g></g></g><g clip-path="url(#403117654b)"><path fill="#0a2647" d="M 11.75 19.507812 L 9.234375 19.507812 L 9.234375 0.816406 L 11.75 0.816406 Z M 11.75 19.507812 " fill-opacity="1" fill-rule="nonzero"/></g><g clip-path="url(#85194bcb59)"><path fill="#0a2647" d="M 25.191406 28.851562 L 22.675781 28.851562 L 22.675781 10.160156 L 25.191406 10.160156 Z M 25.191406 28.851562 " fill-opacity="1" fill-rule="nonzero"/></g><g fill="#ffffff" fill-opacity="1"><g transform="translate(35.308085, 16.714181)"><g><path d="M 8.34375 1.296875 L 6.640625 1.296875 L 6.640625 0 L 4.53125 0 C 3.582031 0 2.773438 -0.332031 2.109375 -1 C 1.453125 -1.664062 1.125 -2.46875 1.125 -3.40625 L 1.125 -7.3125 C 1.125 -8.25 1.453125 -9.046875 2.109375 -9.703125 C 2.773438 -10.367188 3.582031 -10.703125 4.53125 -10.703125 L 10.484375 -10.703125 C 11.421875 -10.703125 12.222656 -10.367188 12.890625 -9.703125 C 13.554688 -9.046875 13.890625 -8.25 13.890625 -7.3125 L 13.890625 -3.40625 C 13.890625 -2.46875 13.554688 -1.664062 12.890625 -1 C 12.222656 -0.332031 11.421875 0 10.484375 0 L 8.34375 0 Z M 10.484375 -1.703125 C 10.953125 -1.703125 11.351562 -1.867188 11.6875 -2.203125 C 12.019531 -2.535156 12.1875 -2.9375 12.1875 -3.40625 L 12.1875 -7.3125 C 12.1875 -7.78125 12.019531 -8.179688 11.6875 -8.515625 C 11.351562 -8.847656 10.953125 -9.015625 10.484375 -9.015625 L 4.53125 -9.015625 C 4.050781 -9.015625 3.644531 -8.847656 3.3125 -8.515625 C 2.988281 -8.179688 2.828125 -7.78125 2.828125 -7.3125 L 2.828125 -3.40625 C 2.828125 -2.9375 2.988281 -2.535156 3.3125 -2.203125 C 3.644531 -1.867188 4.050781 -1.703125 4.53125 -1.703125 L 6.640625 -1.703125 L 6.640625 -2.703125 L 8.34375 -2.703125 L 8.34375 -1.703125 Z M 10.484375 -1.703125 "/></g></g></g><g fill="#ffffff" fill-opacity="1"><g transform="translate(50.314268, 16.714181)"><g><path d="M 10.484375 0 C 11.421875 0 12.222656 -0.332031 12.890625 -1 C 13.554688 -1.664062 13.890625 -2.46875 13.890625 -3.40625 L 13.890625 -10.703125 L 12.1875 -10.703125 L 12.1875 -3.40625 C 12.1875 -2.9375 12.019531 -2.535156 11.6875 -2.203125 C 11.351562 -1.867188 10.953125 -1.703125 10.484375 -1.703125 L 4.53125 -1.703125 C 4.050781 -1.703125 3.644531 -1.867188 3.3125 -2.203125 C 2.988281 -2.535156 2.828125 -2.9375 2.828125 -3.40625 L 2.828125 -10.703125 L 1.125 -10.703125 L 1.125 -3.40625 C 1.125 -2.46875 1.453125 -1.664062 2.109375 -1 C 2.773438 -0.332031 3.582031 0 4.53125 0 Z M 10.484375 0 "/></g></g></g><g fill="#ffffff" fill-opacity="1"><g transform="translate(65.320452, 16.714181)"><g><path d="M 15.625 0 L 13.5625 0 L 11.984375 -2.328125 L 3.859375 -2.328125 L 2.28125 0 L 0.21875 0 L 7.46875 -10.703125 L 8.375 -10.703125 Z M 10.84375 -4.03125 L 7.921875 -8.34375 L 5 -4.03125 Z M 10.84375 -4.03125 "/></g></g></g><g fill="#ffffff" fill-opacity="1"><g transform="translate(81.163217, 16.714181)"><g><path d="M 14.265625 0 L 13.09375 0 L 3.203125 -8.078125 L 3.203125 0 L 1.5 0 L 1.5 -10.703125 L 2.640625 -10.703125 L 12.5625 -2.640625 L 12.5625 -10.703125 L 14.265625 -10.703125 Z M 14.265625 0 "/></g></g></g><g fill="#ffffff" fill-opacity="1"><g transform="translate(96.916348, 16.714181)"><g/></g></g><g fill="#ffffff" fill-opacity="1"><g transform="translate(100.710843, 16.714181)"><g><path d="M 10.484375 0 C 11.421875 0 12.222656 -0.332031 12.890625 -1 C 13.554688 -1.664062 13.890625 -2.46875 13.890625 -3.40625 L 12.1875 -3.40625 C 12.1875 -2.9375 12.019531 -2.535156 11.6875 -2.203125 C 11.351562 -1.867188 10.953125 -1.703125 10.484375 -1.703125 L 4.53125 -1.703125 C 4.050781 -1.703125 3.644531 -1.867188 3.3125 -2.203125 C 2.988281 -2.535156 2.828125 -2.9375 2.828125 -3.40625 L 2.828125 -7.3125 C 2.828125 -7.78125 2.988281 -8.179688 3.3125 -8.515625 C 3.644531 -8.847656 4.050781 -9.015625 4.53125 -9.015625 L 10.484375 -9.015625 C 10.953125 -9.015625 11.351562 -8.847656 11.6875 -8.515625 C 12.019531 -8.179688 12.1875 -7.78125 12.1875 -7.3125 L 13.890625 -7.3125 C 13.890625 -8.25 13.554688 -9.046875 12.890625 -9.703125 C 12.222656 -10.367188 11.421875 -10.703125 10.484375 -10.703125 L 4.53125 -10.703125 C 3.582031 -10.703125 2.773438 -10.367188 2.109375 -9.703125 C 1.453125 -9.046875 1.125 -8.25 1.125 -7.3125 L 1.125 -3.40625 C 1.125 -2.46875 1.453125 -1.664062 2.109375 -1 C 2.773438 -0.332031 3.582031 0 4.53125 0 Z M 10.484375 0 "/></g></g></g><g fill="#00e7ef" fill-opacity="1"><g transform="translate(36.164968, 26.311844)"><g><path d="M 4.15625 0 L 1.34375 0 C 1.082031 0 0.859375 -0.0859375 0.671875 -0.265625 C 0.492188 -0.453125 0.40625 -0.675781 0.40625 -0.9375 L 1.03125 -0.9375 C 1.03125 -0.851562 1.0625 -0.78125 1.125 -0.71875 C 1.1875 -0.65625 1.257812 -0.625 1.34375 -0.625 L 4.15625 -0.625 C 4.238281 -0.625 4.3125 -0.65625 4.375 -0.71875 C 4.4375 -0.78125 4.46875 -0.851562 4.46875 -0.9375 L 4.46875 -1.34375 C 4.46875 -1.425781 4.4375 -1.5 4.375 -1.5625 C 4.3125 -1.625 4.238281 -1.65625 4.15625 -1.65625 L 1.34375 -1.65625 C 1.082031 -1.65625 0.859375 -1.742188 0.671875 -1.921875 C 0.492188 -2.109375 0.40625 -2.332031 0.40625 -2.59375 L 0.40625 -3 C 0.40625 -3.25 0.492188 -3.460938 0.671875 -3.640625 C 0.859375 -3.828125 1.082031 -3.921875 1.34375 -3.921875 L 4.15625 -3.921875 C 4.414062 -3.921875 4.632812 -3.828125 4.8125 -3.640625 C 5 -3.460938 5.09375 -3.25 5.09375 -3 L 4.46875 -3 C 4.46875 -3.082031 4.4375 -3.148438 4.375 -3.203125 C 4.3125 -3.265625 4.238281 -3.296875 4.15625 -3.296875 L 1.34375 -3.296875 C 1.257812 -3.296875 1.1875 -3.265625 1.125 -3.203125 C 1.0625 -3.148438 1.03125 -3.082031 1.03125 -3 L 1.03125 -2.59375 C 1.03125 -2.5 1.0625 -2.421875 1.125 -2.359375 C 1.1875 -2.304688 1.257812 -2.28125 1.34375 -2.28125 L 4.15625 -2.28125 C 4.414062 -2.28125 4.632812 -2.1875 4.8125 -2 C 5 -1.820312 5.09375 -1.601562 5.09375 -1.34375 L 5.09375 -0.9375 C 5.09375 -0.675781 5 -0.453125 4.8125 -0.265625 C 4.632812 -0.0859375 4.414062 0 4.15625 0 Z M 4.15625 0 "/></g></g></g><g fill="#00e7ef" fill-opacity="1"><g transform="translate(42.905529, 26.311844)"><g><path d="M 4.921875 0 L 0.546875 0 L 0.546875 -3.921875 L 4.921875 -3.921875 L 4.921875 -3.3125 L 1.171875 -3.3125 L 1.171875 -2.28125 L 4.46875 -2.28125 L 4.46875 -1.65625 L 1.171875 -1.65625 L 1.171875 -0.625 L 4.921875 -0.625 Z M 4.921875 0 "/></g></g></g><g fill="#00e7ef" fill-opacity="1"><g transform="translate(49.470857, 26.311844)"><g><path d="M 3.84375 0 C 4.1875 0 4.476562 -0.117188 4.71875 -0.359375 C 4.96875 -0.609375 5.09375 -0.90625 5.09375 -1.25 L 4.46875 -1.25 C 4.46875 -1.070312 4.40625 -0.921875 4.28125 -0.796875 C 4.15625 -0.679688 4.007812 -0.625 3.84375 -0.625 L 1.65625 -0.625 C 1.488281 -0.625 1.34375 -0.679688 1.21875 -0.796875 C 1.09375 -0.921875 1.03125 -1.070312 1.03125 -1.25 L 1.03125 -2.6875 C 1.03125 -2.851562 1.09375 -3 1.21875 -3.125 C 1.34375 -3.25 1.488281 -3.3125 1.65625 -3.3125 L 3.84375 -3.3125 C 4.007812 -3.3125 4.15625 -3.25 4.28125 -3.125 C 4.40625 -3 4.46875 -2.851562 4.46875 -2.6875 L 5.09375 -2.6875 C 5.09375 -3.03125 4.96875 -3.320312 4.71875 -3.5625 C 4.476562 -3.800781 4.1875 -3.921875 3.84375 -3.921875 L 1.65625 -3.921875 C 1.3125 -3.921875 1.015625 -3.800781 0.765625 -3.5625 C 0.523438 -3.320312 0.40625 -3.03125 0.40625 -2.6875 L 0.40625 -1.25 C 0.40625 -0.90625 0.523438 -0.609375 0.765625 -0.359375 C 1.015625 -0.117188 1.3125 0 1.65625 0 Z M 3.84375 0 "/></g></g></g><g fill="#00e7ef" fill-opacity="1"><g transform="translate(56.211419, 26.311844)"><g><path d="M 3.84375 0 C 4.1875 0 4.476562 -0.117188 4.71875 -0.359375 C 4.96875 -0.609375 5.09375 -0.90625 5.09375 -1.25 L 5.09375 -3.921875 L 4.46875 -3.921875 L 4.46875 -1.25 C 4.46875 -1.070312 4.40625 -0.921875 4.28125 -0.796875 C 4.15625 -0.679688 4.007812 -0.625 3.84375 -0.625 L 1.65625 -0.625 C 1.488281 -0.625 1.34375 -0.679688 1.21875 -0.796875 C 1.09375 -0.921875 1.03125 -1.070312 1.03125 -1.25 L 1.03125 -3.921875 L 0.40625 -3.921875 L 0.40625 -1.25 C 0.40625 -0.90625 0.523438 -0.609375 0.765625 -0.359375 C 1.015625 -0.117188 1.3125 0 1.65625 0 Z M 3.84375 0 "/></g></g></g><g fill="#00e7ef" fill-opacity="1"><g transform="translate(62.951979, 26.311844)"><g><path d="M 5.234375 0 L 4.609375 0 L 4.609375 -1.109375 C 4.609375 -1.191406 4.578125 -1.265625 4.515625 -1.328125 C 4.453125 -1.390625 4.378906 -1.421875 4.296875 -1.421875 L 1.171875 -1.421875 L 1.171875 0 L 0.546875 0 L 0.546875 -3.921875 L 4.296875 -3.921875 C 4.546875 -3.921875 4.765625 -3.828125 4.953125 -3.640625 C 5.140625 -3.460938 5.234375 -3.25 5.234375 -3 L 5.234375 -2.359375 C 5.234375 -2.117188 5.148438 -1.910156 4.984375 -1.734375 C 5.148438 -1.554688 5.234375 -1.347656 5.234375 -1.109375 Z M 4.296875 -2.046875 C 4.378906 -2.046875 4.453125 -2.078125 4.515625 -2.140625 C 4.578125 -2.203125 4.609375 -2.273438 4.609375 -2.359375 L 4.609375 -3 C 4.609375 -3.082031 4.578125 -3.15625 4.515625 -3.21875 C 4.453125 -3.28125 4.378906 -3.3125 4.296875 -3.3125 L 1.171875 -3.3125 L 1.171875 -2.046875 Z M 4.296875 -2.046875 "/></g></g></g><g fill="#00e7ef" fill-opacity="1"><g transform="translate(69.829441, 26.311844)"><g><path d="M 4.921875 0 L 0.546875 0 L 0.546875 -3.921875 L 4.921875 -3.921875 L 4.921875 -3.3125 L 1.171875 -3.3125 L 1.171875 -2.28125 L 4.46875 -2.28125 L 4.46875 -1.65625 L 1.171875 -1.65625 L 1.171875 -0.625 L 4.921875 -0.625 Z M 4.921875 0 "/></g></g></g><g fill="#00e7ef" fill-opacity="1"><g transform="translate(76.394768, 26.311844)"><g/></g></g><g fill="#00e7ef" fill-opacity="1"><g transform="translate(79.025545, 26.311844)"><g><path d="M 3.84375 0 C 4.1875 0 4.476562 -0.117188 4.71875 -0.359375 C 4.96875 -0.609375 5.09375 -0.90625 5.09375 -1.25 L 4.46875 -1.25 C 4.46875 -1.070312 4.40625 -0.921875 4.28125 -0.796875 C 4.15625 -0.679688 4.007812 -0.625 3.84375 -0.625 L 1.65625 -0.625 C 1.488281 -0.625 1.34375 -0.679688 1.21875 -0.796875 C 1.09375 -0.921875 1.03125 -1.070312 1.03125 -1.25 L 1.03125 -2.6875 C 1.03125 -2.851562 1.09375 -3 1.21875 -3.125 C 1.34375 -3.25 1.488281 -3.3125 1.65625 -3.3125 L 3.84375 -3.3125 C 4.007812 -3.3125 4.15625 -3.25 4.28125 -3.125 C 4.40625 -3 4.46875 -2.851562 4.46875 -2.6875 L 5.09375 -2.6875 C 5.09375 -3.03125 4.96875 -3.320312 4.71875 -3.5625 C 4.476562 -3.800781 4.1875 -3.921875 3.84375 -3.921875 L 1.65625 -3.921875 C 1.3125 -3.921875 1.015625 -3.800781 0.765625 -3.5625 C 0.523438 -3.320312 0.40625 -3.03125 0.40625 -2.6875 L 0.40625 -1.25 C 0.40625 -0.90625 0.523438 -0.609375 0.765625 -0.359375 C 1.015625 -0.117188 1.3125 0 1.65625 0 Z M 3.84375 0 "/></g></g></g><g fill="#00e7ef" fill-opacity="1"><g transform="translate(85.766105, 26.311844)"><g><path d="M 3.84375 0 C 4.1875 0 4.476562 -0.117188 4.71875 -0.359375 C 4.96875 -0.609375 5.09375 -0.90625 5.09375 -1.25 L 5.09375 -2.6875 C 5.09375 -3.03125 4.96875 -3.320312 4.71875 -3.5625 C 4.476562 -3.800781 4.1875 -3.921875 3.84375 -3.921875 L 1.65625 -3.921875 C 1.3125 -3.921875 1.015625 -3.800781 0.765625 -3.5625 C 0.523438 -3.320312 0.40625 -3.03125 0.40625 -2.6875 L 0.40625 -1.25 C 0.40625 -0.90625 0.523438 -0.609375 0.765625 -0.359375 C 1.015625 -0.117188 1.3125 0 1.65625 0 Z M 3.84375 -0.625 L 1.65625 -0.625 C 1.488281 -0.625 1.34375 -0.679688 1.21875 -0.796875 C 1.09375 -0.921875 1.03125 -1.070312 1.03125 -1.25 L 1.03125 -2.6875 C 1.03125 -2.851562 1.09375 -3 1.21875 -3.125 C 1.34375 -3.25 1.488281 -3.3125 1.65625 -3.3125 L 3.84375 -3.3125 C 4.007812 -3.3125 4.15625 -3.25 4.28125 -3.125 C 4.40625 -3 4.46875 -2.851562 4.46875 -2.6875 L 4.46875 -1.25 C 4.46875 -1.070312 4.40625 -0.921875 4.28125 -0.796875 C 4.15625 -0.679688 4.007812 -0.625 3.84375 -0.625 Z M 3.84375 -0.625 "/></g></g></g><g fill="#00e7ef" fill-opacity="1"><g transform="translate(92.506665, 26.311844)"><g><path d="M 3.984375 0 C 4.328125 0 4.617188 -0.117188 4.859375 -0.359375 C 5.109375 -0.609375 5.234375 -0.90625 5.234375 -1.25 L 5.234375 -2.6875 C 5.234375 -3.03125 5.109375 -3.320312 4.859375 -3.5625 C 4.617188 -3.800781 4.328125 -3.921875 3.984375 -3.921875 L 0.546875 -3.921875 L 0.546875 0 Z M 3.984375 -0.625 L 1.171875 -0.625 L 1.171875 -3.3125 L 3.984375 -3.3125 C 4.148438 -3.3125 4.296875 -3.25 4.421875 -3.125 C 4.546875 -3 4.609375 -2.851562 4.609375 -2.6875 L 4.609375 -1.25 C 4.609375 -1.070312 4.546875 -0.921875 4.421875 -0.796875 C 4.296875 -0.679688 4.148438 -0.625 3.984375 -0.625 Z M 3.984375 -0.625 "/></g></g></g><g fill="#00e7ef" fill-opacity="1"><g transform="translate(99.384127, 26.311844)"><g><path d="M 1.171875 0 L 1.171875 -3.921875 L 0.546875 -3.921875 L 0.546875 0 Z M 1.171875 0 "/></g></g></g><g fill="#00e7ef" fill-opacity="1"><g transform="translate(102.343471, 26.311844)"><g><path d="M 5.234375 0 L 4.796875 0 L 1.171875 -2.953125 L 1.171875 0 L 0.546875 0 L 0.546875 -3.921875 L 0.96875 -3.921875 L 4.609375 -0.96875 L 4.609375 -3.921875 L 5.234375 -3.921875 Z M 5.234375 0 "/></g></g></g><g fill="#00e7ef" fill-opacity="1"><g transform="translate(109.357835, 26.311844)"><g><path d="M 3.84375 0 C 4.175781 0 4.46875 -0.117188 4.71875 -0.359375 C 4.96875 -0.609375 5.09375 -0.90625 5.09375 -1.25 L 5.09375 -1.65625 C 5.09375 -1.769531 5.046875 -1.867188 4.953125 -1.953125 C 4.867188 -2.046875 4.765625 -2.09375 4.640625 -2.09375 L 2.75 -2.09375 L 2.75 -1.46875 L 4.46875 -1.46875 L 4.46875 -1.25 C 4.46875 -1.082031 4.40625 -0.9375 4.28125 -0.8125 C 4.15625 -0.6875 4.007812 -0.625 3.84375 -0.625 L 1.65625 -0.625 C 1.488281 -0.625 1.34375 -0.679688 1.21875 -0.796875 C 1.09375 -0.921875 1.03125 -1.070312 1.03125 -1.25 L 1.03125 -2.6875 C 1.03125 -2.851562 1.09375 -3 1.21875 -3.125 C 1.34375 -3.25 1.488281 -3.3125 1.65625 -3.3125 L 3.84375 -3.3125 C 4.007812 -3.3125 4.15625 -3.25 4.28125 -3.125 C 4.40625 -3 4.46875 -2.851562 4.46875 -2.6875 L 5.09375 -2.6875 C 5.09375 -3.03125 4.96875 -3.320312 4.71875 -3.5625 C 4.476562 -3.800781 4.1875 -3.921875 3.84375 -3.921875 L 1.65625 -3.921875 C 1.3125 -3.921875 1.015625 -3.800781 0.765625 -3.5625 C 0.523438 -3.320312 0.40625 -3.03125 0.40625 -2.6875 L 0.40625 -1.25 C 0.40625 -0.90625 0.523438 -0.609375 0.765625 -0.359375 C 1.015625 -0.117188 1.3125 0 1.65625 0 Z M 3.84375 0 "/></g></g></g></svg>